<svg xmlns="http://www.w3.org/2000/svg" width="34.105" height="32.671" viewBox="0 0 34.105 32.671">
  <path id="Icon_metro-my-location" data-name="Icon metro-my-location" d="M20.908,14.251a6.073,6.073,0,0,0-6.2,5.94,6.073,6.073,0,0,0,6.2,5.94,6.073,6.073,0,0,0,6.2-5.94,6.073,6.073,0,0,0-6.2-5.94Zm13.859,4.455A13.661,13.661,0,0,0,22.459,6.915V3.856h-3.1V6.915A13.661,13.661,0,0,0,7.05,18.707H3.856v2.97H7.05A13.661,13.661,0,0,0,19.358,33.468v3.059h3.1V33.468A13.661,13.661,0,0,0,34.767,21.677h3.193v-2.97H34.767ZM20.908,30.587a10.633,10.633,0,0,1-10.852-10.4A10.633,10.633,0,0,1,20.908,9.8a10.633,10.633,0,0,1,10.852,10.4A10.633,10.633,0,0,1,20.908,30.587Z" transform="translate(-3.856 -3.856)" fill="gray"/>
</svg>
